<svg width="160.5" height="160.5" viewBox="0 0 856 856" fill="none" xmlns="http://www.w3.org/2000/svg" xmlns:xlink="http://www.w3.org/1999/xlink" version="1.1">
            <!-- Icon: html -->
            <g transform="translate(0, 0)">
              <rect width="256" height="256" fill="#E14E1D" rx="60"/><path fill="#fff" d="M48 38L56.6098 134.593H167.32L163.605 176.023L127.959 185.661L92.38 176.037L90.0012 149.435H57.9389L62.5236 200.716L127.951 218.888L193.461 200.716L202.244 102.655H85.8241L82.901 69.9448H205.041H205.139L208 38H48Z"/><path fill="#EBEBEB" d="M128 38H48L56.6098 134.593H128V102.655H85.8241L82.901 69.9448H128V38Z"/><path fill="#EBEBEB" d="M128 185.647L127.959 185.661L92.38 176.037L90.0012 149.435H57.9388L62.5236 200.716L127.951 218.888L128 218.874V185.647Z"/>
              
            </g>
            <!-- Icon: css -->
            <g transform="translate(300, 0)">
              <rect width="256" height="256" rx="60" fill="#0277BD"/>
<path d="M53.7527 102.651L56.6155 134.593H128.096V102.651H53.7527Z" fill="#EBEBEB"/>
<path d="M128.095 38H127.985H48L50.9036 69.9423H128.095V38Z" fill="#EBEBEB"/>
<path d="M128.095 218.841V185.608L127.955 185.645L92.3813 176.04L90.1072 150.564H72.821H58.0425L62.5175 200.718L127.948 218.882L128.095 218.841Z" fill="#EBEBEB"/>
<path d="M167.318 134.593L163.61 176.019L127.985 185.635V218.866L193.468 200.718L193.948 195.321L201.454 111.229L202.233 102.651L208 38H127.985V69.9423H172.994L170.088 102.651H127.985V134.593H167.318Z" fill="white"/>
              
            </g>
            <!-- Icon: javascript -->
            <g transform="translate(600, 0)">
              <rect width="256" height="256" rx="60" fill="#F0DB4F"/>
<path d="M67.3117 213.932L86.9027 202.076C90.6821 208.777 94.1202 214.447 102.367 214.447C110.272 214.447 115.256 211.355 115.256 199.327V117.529H139.314V199.667C139.314 224.584 124.708 235.926 103.398 235.926C84.1533 235.926 72.9819 225.959 67.3113 213.93" fill="#323330"/>
<path d="M152.381 211.354L171.969 200.013C177.126 208.434 183.828 214.62 195.684 214.62C205.653 214.62 212.009 209.636 212.009 202.762C212.009 194.514 205.479 191.592 194.481 186.782L188.468 184.203C171.111 176.815 159.597 167.535 159.597 147.945C159.597 129.901 173.345 116.153 194.826 116.153C210.12 116.153 221.118 121.481 229.022 135.4L210.291 147.429C206.166 140.04 201.7 137.119 194.826 137.119C187.78 137.119 183.312 141.587 183.312 147.429C183.312 154.646 187.78 157.568 198.09 162.037L204.104 164.614C224.553 173.379 236.067 182.313 236.067 202.418C236.067 224.072 219.055 235.928 196.2 235.928C173.861 235.928 159.426 225.274 152.381 211.354" fill="#323330"/>
              
            </g>
            <!-- Icon: blender -->
            <g transform="translate(0, 300)">
              <rect width="256" height="256" fill="#242938" rx="60"/><path fill="#fff" d="M105.552 137.283C106.327 123.403 113.091 111.174 123.296 102.505C133.304 93.9907 146.775 88.7866 161.473 88.7866C176.156 88.7866 189.627 93.9907 199.642 102.505C209.84 111.174 216.604 123.403 217.386 137.268C218.16 151.53 212.455 164.779 202.447 174.6C192.242 184.59 177.727 190.859 161.473 190.859C145.219 190.859 130.675 184.59 120.477 174.6C110.461 164.779 104.771 151.53 105.552 137.283V137.283Z"/><path fill="#265787" d="M132.782 138.529C133.179 131.407 136.65 125.132 141.886 120.684C147.021 116.315 153.933 113.645 161.475 113.645C169.009 113.645 175.921 116.315 181.059 120.684C186.292 125.132 189.763 131.407 190.164 138.521C190.561 145.839 187.634 152.637 182.499 157.677C177.262 162.803 169.815 166.019 161.475 166.019C153.135 166.019 145.672 162.803 140.439 157.677C135.301 152.637 132.381 145.839 132.782 138.529V138.529Z"/><path fill="#EA7600" d="M87.0902 152.92C87.139 155.707 88.0235 161.123 89.3504 165.353C92.1392 174.305 96.8694 182.587 103.451 189.886C110.206 197.389 118.523 203.415 128.13 207.693C138.228 212.186 149.169 214.476 160.534 214.457C171.88 214.442 182.821 212.107 192.919 207.58C202.526 203.26 210.836 197.208 217.579 189.702C224.157 182.372 228.88 174.075 231.676 165.123C233.082 160.599 233.97 156.008 234.326 151.402C234.675 146.864 234.529 142.318 233.888 137.776C232.636 128.925 229.588 120.62 224.895 113.05C220.604 106.094 215.071 100.004 208.493 94.8777L208.508 94.8663L142.122 43.6486C142.062 43.6034 142.014 43.5545 141.95 43.5131C137.594 40.1535 130.27 40.1648 125.48 43.5319C120.637 46.9366 120.083 52.5672 124.393 56.1188L124.374 56.1376L152.063 78.7617L67.6704 78.8521H67.558C60.5825 78.8597 53.8768 83.4583 52.5499 89.2697C51.1855 95.1903 55.9233 100.101 63.1762 100.128L63.165 100.154L105.94 100.071L29.6104 158.942C29.513 159.014 29.408 159.089 29.3181 159.161C22.1176 164.701 19.79 173.913 24.3254 179.743C28.9283 185.672 38.715 185.683 45.9904 179.777L87.6487 145.519C87.6487 145.519 87.0415 150.144 87.0902 152.92V152.92ZM194.137 168.407C185.554 177.194 173.537 182.177 160.534 182.203C147.512 182.226 135.495 177.288 126.912 168.516C122.718 164.241 119.636 159.323 117.736 154.084C115.873 148.935 115.15 143.47 115.63 137.956C116.083 132.567 117.68 127.426 120.229 122.775C122.733 118.202 126.181 114.071 130.439 110.576C138.783 103.744 149.405 100.045 160.515 100.03C171.636 100.015 182.251 103.679 190.603 110.489C194.853 113.969 198.298 118.086 200.802 122.65C203.362 127.298 204.947 132.42 205.419 137.825C205.892 143.331 205.168 148.788 203.305 153.941C201.401 159.195 198.331 164.113 194.137 168.407V168.407Z"/>
              
            </g>
            <!-- Icon: gimp -->
            <g transform="translate(300, 300)">
              <defs>
    <linearGradient id="j">
      <stop offset="0" style="stop-color:#5b676b;stop-opacity:1"/>
      <stop offset="1" style="stop-color:#141718;stop-opacity:1"/>
    </linearGradient>
    <linearGradient id="f">
      <stop offset="0" style="stop-color:black;stop-opacity:1"/>
      <stop offset="1" style="stop-color:black;stop-opacity:0"/>
    </linearGradient>
    <linearGradient id="e">
      <stop offset="0" style="stop-color:white;stop-opacity:1"/>
      <stop offset="1" style="stop-color:white;stop-opacity:0"/>
    </linearGradient>
    <linearGradient id="a">
      <stop offset="0" style="stop-color:white;stop-opacity:1"/>
      <stop offset="1" style="stop-color:white;stop-opacity:0"/>
    </linearGradient>
    <linearGradient xlink:href="#a" id="v" x1="13.24" x2="7.75" y1="37.75" y2="42.28" gradientTransform="rotate(27.62 -26.24 -49.44) scale(.8523)" gradientUnits="userSpaceOnUse"/>
    <linearGradient id="h">
      <stop offset="0" style="stop-color:#696969;stop-opacity:1"/>
      <stop offset="1" style="stop-color:black;stop-opacity:1"/>
    </linearGradient>
    <linearGradient id="b">
      <stop offset="0" style="stop-color:#bdbdbd;stop-opacity:1"/>
      <stop offset=".33" style="stop-color:#e2e2e2;stop-opacity:1"/>
      <stop offset=".67" style="stop-color:#a3a3a3;stop-opacity:1"/>
      <stop offset="1" style="stop-color:#ddd;stop-opacity:1"/>
    </linearGradient>
    <linearGradient xlink:href="#b" id="t" x1="19.39" x2="23.11" y1="30" y2="33.44" gradientTransform="translate(-46.4 -1.8)" gradientUnits="userSpaceOnUse"/>
    <linearGradient id="c">
      <stop offset="0" style="stop-color:#6e3d09;stop-opacity:1"/>
      <stop offset=".24" style="stop-color:#ea8113;stop-opacity:1"/>
      <stop offset=".62" style="stop-color:#5c3307;stop-opacity:1"/>
      <stop offset="1" style="stop-color:#e07c12;stop-opacity:1"/>
    </linearGradient>
    <linearGradient xlink:href="#c" id="s" x1="37.02" x2="27.75" y1="19.24" y2="11.18" gradientTransform="translate(-49.3 1.88)" gradientUnits="userSpaceOnUse"/>
    <linearGradient id="k">
      <stop offset="0" style="stop-color:#857c63;stop-opacity:1"/>
      <stop offset="1" style="stop-color:#221f19;stop-opacity:1"/>
    </linearGradient>
    <linearGradient id="g">
      <stop offset="0" style="stop-color:black;stop-opacity:1"/>
      <stop offset="1" style="stop-color:black;stop-opacity:0"/>
    </linearGradient>
    <linearGradient id="i">
      <stop offset="0" style="stop-color:white;stop-opacity:1"/>
      <stop offset="1" style="stop-color:#b9b9b0;stop-opacity:1"/>
    </linearGradient>
    <linearGradient id="d">
      <stop offset="0" style="stop-color:white;stop-opacity:1"/>
      <stop offset="1" style="stop-color:white;stop-opacity:0"/>
    </linearGradient>
    <linearGradient xlink:href="#d" id="q" x1="6.31" x2="5.98" y1="23.36" y2="31.57" gradientUnits="userSpaceOnUse"/>
    <linearGradient xlink:href="#e" id="n" x1="14.97" x2="39.52" y1="19.11" y2="46.99" gradientUnits="userSpaceOnUse"/>
    <linearGradient xlink:href="#f" id="w" x1="26.16" x2="24.33" y1="30.54" y2="30.99" gradientUnits="userSpaceOnUse"/>
    <linearGradient xlink:href="#g" id="m" x1="32.35" x2="21.21" y1="28.08" y2="30.29" gradientTransform="translate(-3.84 .35)" gradientUnits="userSpaceOnUse"/>
    <radialGradient xlink:href="#h" id="u" cx="15.42" cy="35.36" r="7.58" fx="15.42" fy="35.36" gradientTransform="matrix(1.5727 0 0 1.5326 -55.37 -21.36)" gradientUnits="userSpaceOnUse"/>
    <radialGradient xlink:href="#i" id="r" cx="69.47" cy="19.6" r="3.52" fx="69.47" fy="19.6" gradientTransform="translate(-22.13 -6.24) scale(1.3185)" gradientUnits="userSpaceOnUse"/>
    <radialGradient xlink:href="#j" id="p" cx="6.02" cy="25.27" r="4.83" fx="6.02" fy="25.27" gradientTransform="matrix(.9162 .0932 -.1088 1.0693 3.25 -3.03)" gradientUnits="userSpaceOnUse"/>
    <radialGradient xlink:href="#k" id="l" cx="18.56" cy="22.3" r="19.23" fx="18.56" fy="22.3" gradientTransform="matrix(1.7728 0 0 1.2967 -16.34 -6.62)" gradientUnits="userSpaceOnUse"/>
    <radialGradient xlink:href="#i" id="o" cx="69.47" cy="19.6" r="3.52" fx="69.47" fy="19.6" gradientTransform="translate(-22.13 -6.24) scale(1.3185)" gradientUnits="userSpaceOnUse"/>
  </defs>
  <rect width="256" height="256" fill="#242938" rx="60" style="fill:#242938;fill-opacity:1"/>
  <path d="M10.37 12.47s2.88 5.93 9.6 5.76c14.1-.36 16.57-7.7 16.92-8.77.35-1.06.9-.9 1.02.08 4.6 41.72-31.9 23.82-33.2 16.72 7.26-2.12 5.49-6.2 5.49-6.2Z" style="color:#000;display:inline;overflow:visible;visibility:visible;fill:url(#l);fill-opacity:1;fill-rule:evenodd;stroke:#2e3436;stroke-width:1;stroke-linecap:butt;stroke-linejoin:miter;stroke-miterlimit:10;stroke-dasharray:none;stroke-dashoffset:0;stroke-opacity:1;marker:none;marker-start:none;marker-mid:none;marker-end:none" transform="translate(16.17 7.87) scale(4.7398)"/>
  <path d="M15.74 30.07c6.74 1.34 10.17.1 12.18-1.46-.53-.68-1.44-1.43-1.44-1.43s2.35.65 3.18 1.72c.83 1.07.3 1.72.1 3.09-.49-1.2-1.39-1.65-1.5-2.13-1.81 2.5-6.31 2.4-12.52.2z" style="color:#000;display:inline;overflow:visible;visibility:visible;fill:url(#m);fill-opacity:1;fill-rule:evenodd;stroke:none;stroke-width:1;stroke-linecap:butt;stroke-linejoin:miter;stroke-miterlimit:10;stroke-dasharray:none;stroke-dashoffset:0;stroke-opacity:1;marker:none;marker-start:none;marker-mid:none;marker-end:none" transform="translate(16.17 7.87) scale(4.7398)"/>
  <path d="M36.97 11.84a12 12 0 0 1-2.69 3.1c-2.63 2.18-7.05 4.16-14.28 4.34-4.22.1-6.95-1.93-8.63-3.75L11.26 20c.14.42.42 1.39-.06 2.72-.52 1.43-2.16 2.89-4.97 4 .25.52.5 1.04 1.25 1.78 1.03 1 2.46 2.09 4.16 3.06 3.4 1.95 7.8 3.5 11.9 3.57 4.1.06 7.86-1.24 10.44-5 2.38-3.48 3.68-9.35 3-18.29z" style="color:#000;display:inline;overflow:visible;visibility:visible;opacity:.185393;fill:none;fill-opacity:1;fill-rule:evenodd;stroke:url(#n);stroke-width:1;stroke-linecap:butt;stroke-linejoin:miter;stroke-miterlimit:10;stroke-dasharray:none;stroke-dashoffset:0;stroke-opacity:1;marker:none;marker-start:none;marker-mid:none;marker-end:none" transform="translate(16.17 7.87) scale(4.7398)"/>
  <path d="M72.66 21.84a3.18 3.18 0 1 1-6.37 0 3.18 3.18 0 1 1 6.37 0z" style="color:#000;display:inline;overflow:visible;visibility:visible;fill:url(#o);fill-opacity:1;fill-rule:evenodd;stroke:#888a85;stroke-width:.782608;stroke-linecap:butt;stroke-linejoin:miter;stroke-miterlimit:10;stroke-dasharray:none;stroke-dashoffset:0;stroke-opacity:1;marker:none;marker-start:none;marker-mid:none;marker-end:none" transform="translate(-339.92 -22.97) scale(6.0564)"/>
  <path d="M10.43 27.23a4.33 6.1 0 1 1-8.66 0 4.33 6.1 0 1 1 8.66 0z" style="color:#000;display:inline;overflow:visible;visibility:visible;fill:url(#p);fill-opacity:1;fill-rule:evenodd;stroke:#000;stroke-width:1;stroke-linecap:butt;stroke-linejoin:miter;stroke-miterlimit:10;stroke-dasharray:none;stroke-dashoffset:0;stroke-opacity:1;marker:none;marker-start:none;marker-mid:none;marker-end:none" transform="rotate(-35.81 36.2 103.78) scale(4.7398)"/>
  <path d="M24.04 21.84a2.3 2.3 0 1 1-4.6 0 2.3 2.3 0 1 1 4.6 0z" style="color:#000;display:inline;overflow:visible;visibility:visible;fill:#2e3436;fill-opacity:1;fill-rule:evenodd;stroke:#000;stroke-width:1.17391;stroke-linecap:butt;stroke-linejoin:miter;stroke-miterlimit:10;stroke-dasharray:none;stroke-dashoffset:0;stroke-opacity:1;marker:none;marker-start:none;marker-mid:none;marker-end:none" transform="translate(-2.45 23.97) scale(4.0376)"/>
  <path d="M6.1 22.16c-.8 0-1.56.44-2.2 1.34a6.61 6.61 0 0 0-1.09 3.72c0 1.48.46 2.82 1.1 3.72.63.9 1.39 1.34 2.18 1.34.8 0 1.58-.48 2.22-1.37.64-.9 1.1-2.21 1.1-3.7 0-1.47-.46-2.78-1.1-3.68-.64-.9-1.42-1.37-2.22-1.37z" style="color:#000;display:inline;overflow:visible;visibility:visible;opacity:.280899;fill:none;fill-opacity:1;fill-rule:evenodd;stroke:url(#q);stroke-width:1;stroke-linecap:butt;stroke-linejoin:miter;stroke-miterlimit:10;stroke-dasharray:none;stroke-dashoffset:0;stroke-opacity:1;marker:none;marker-start:none;marker-mid:none;marker-end:none" transform="rotate(-36.83 35.86 105.74) scale(4.7398)"/>
  <path d="M5.83 23.25a1.77 2.12 0 1 1-3.53 0 1.77 2.12 0 1 1 3.53 0z" style="color:#000;display:inline;overflow:visible;visibility:visible;fill:#fff;fill-opacity:1;fill-rule:evenodd;stroke:none;stroke-width:1;stroke-linecap:butt;stroke-linejoin:miter;stroke-miterlimit:10;stroke-dasharray:none;stroke-dashoffset:0;stroke-opacity:1;marker:none;marker-start:none;marker-mid:none;marker-end:none" transform="translate(16.17 7.87) scale(4.7398)"/>
  <path d="M23.16 20.95a1.77 1.77 0 1 1-3.54 0 1.77 1.77 0 1 1 3.54 0z" style="color:#000;display:inline;overflow:visible;visibility:visible;fill:#fff;fill-opacity:1;fill-rule:evenodd;stroke:none;stroke-width:1;stroke-linecap:butt;stroke-linejoin:miter;stroke-miterlimit:10;stroke-dasharray:none;stroke-dashoffset:0;stroke-opacity:1;marker:none;marker-start:none;marker-mid:none;marker-end:none" transform="translate(4.05 31.71) scale(3.6339)"/>
  <path d="M72.66 21.84a3.18 3.18 0 1 1-6.37 0 3.18 3.18 0 1 1 6.37 0z" style="color:#000;display:inline;overflow:visible;visibility:visible;fill:url(#r);fill-opacity:1;fill-rule:evenodd;stroke:#888a85;stroke-width:.666666;stroke-linecap:butt;stroke-linejoin:miter;stroke-miterlimit:10;stroke-dasharray:none;stroke-dashoffset:0;stroke-opacity:1;marker:none;marker-start:none;marker-mid:none;marker-end:none" transform="translate(-373.3 -43.88) scale(7.1097)"/>
  <path d="M24.04 21.84a2.3 2.3 0 1 1-4.6 0 2.3 2.3 0 1 1 4.6 0z" style="color:#000;display:inline;overflow:visible;visibility:visible;fill:#2e3436;fill-opacity:1;fill-rule:evenodd;stroke:#000;stroke-width:1;stroke-linecap:butt;stroke-linejoin:miter;stroke-miterlimit:10;stroke-dasharray:none;stroke-dashoffset:0;stroke-opacity:1;marker:none;marker-start:none;marker-mid:none;marker-end:none" transform="translate(22.87 11.22) scale(4.7398)"/>
  <path d="M23.16 20.95a1.77 1.77 0 1 1-3.54 0 1.77 1.77 0 1 1 3.54 0z" style="color:#000;display:inline;overflow:visible;visibility:visible;fill:#fff;fill-opacity:1;fill-rule:evenodd;stroke:none;stroke-width:1;stroke-linecap:butt;stroke-linejoin:miter;stroke-miterlimit:10;stroke-dasharray:none;stroke-dashoffset:0;stroke-opacity:1;marker:none;marker-start:none;marker-mid:none;marker-end:none" transform="translate(30.5 20.32) scale(4.2658)"/>
  <path d="m-23.36 23.57 3.7 3.47c8.35-6.38 17.1-20.1 17.1-20.1 1.98-2.24-.12-3.75-2.16-2.4 0 0-12.98 10.12-18.64 19.03z" style="color:#000;display:inline;overflow:visible;visibility:visible;opacity:1;fill:url(#s);fill-opacity:1;fill-rule:nonzero;stroke:#673907;stroke-width:2.46045;stroke-linecap:round;stroke-linejoin:miter;stroke-miterlimit:4;stroke-dasharray:none;stroke-dashoffset:0;stroke-opacity:1;marker:none;marker-start:none;marker-mid:none;marker-end:none" transform="rotate(-106.41 122.22 24.45) scale(1.9264)"/>
  <path d="m-30.45 32.81 2.25 1.94 8.49-7.37.27-.7 1.1-.02c-.44-1.57-2.94-4.39-4.82-4.39l.08 1.1-.67.37z" style="color:#000;display:inline;overflow:visible;visibility:visible;opacity:1;fill:url(#t);fill-opacity:1;fill-rule:nonzero;stroke:#888a85;stroke-width:2.46045;stroke-linecap:round;stroke-linejoin:miter;stroke-miterlimit:4;stroke-dasharray:none;stroke-dashoffset:0;stroke-opacity:1;marker:none;marker-start:none;marker-mid:none;marker-end:none" transform="rotate(-106.41 122.22 24.45) scale(1.9264)"/>
  <path d="m-23.8 28.38-4.37 5.26" style="color:#000;display:inline;overflow:visible;visibility:visible;opacity:1;fill:none;fill-opacity:1;fill-rule:nonzero;stroke:#fff;stroke-width:2.46045;stroke-linecap:round;stroke-linejoin:round;stroke-miterlimit:4;stroke-dasharray:none;stroke-dashoffset:0;stroke-opacity:1;marker:none;marker-start:none;marker-mid:none;marker-end:none" transform="rotate(-106.41 122.22 24.45) scale(1.9264)"/>
  <path d="M-45.34 42.77c10.44 0 18.37 1.24 19.87-6.35 1.2-6.13-7.21-9.06-11.38-3.6-4.02 5.27-8.5 9.95-8.5 9.95z" style="color:#000;display:inline;overflow:visible;visibility:visible;opacity:1;fill:url(#u);fill-opacity:1;fill-rule:nonzero;stroke:none;stroke-width:.2;stroke-linecap:round;stroke-linejoin:miter;stroke-miterlimit:4;stroke-dasharray:none;stroke-dashoffset:0;stroke-opacity:1;marker:none;marker-start:none;marker-mid:none;marker-end:none" transform="rotate(-106.41 122.22 24.45) scale(1.9264)"/>
  <path d="M8.87 37.75a1.25 1.25 0 1 1-2.5 0 1.25 1.25 0 1 1 2.5 0z" style="color:#000;display:inline;overflow:visible;visibility:visible;opacity:.527778;fill:#fff;fill-opacity:1;fill-rule:nonzero;stroke:none;stroke-width:1;stroke-linecap:round;stroke-linejoin:miter;stroke-miterlimit:4;stroke-dasharray:none;stroke-dashoffset:0;stroke-opacity:1;marker:none;marker-start:none;marker-mid:none;marker-end:none" transform="rotate(-106.41 135.43 96.66) scale(3.9875)"/>
  <path d="M8.87 37.75a1.25 1.25 0 1 1-2.5 0 1.25 1.25 0 1 1 2.5 0z" style="color:#000;display:inline;overflow:visible;visibility:visible;opacity:1;fill:#fff;fill-opacity:1;fill-rule:nonzero;stroke:none;stroke-width:1;stroke-linecap:round;stroke-linejoin:miter;stroke-miterlimit:4;stroke-dasharray:none;stroke-dashoffset:0;stroke-opacity:1;marker:none;marker-start:none;marker-mid:none;marker-end:none" transform="rotate(-106.41 134.47 72.47) scale(2.6905)"/>
  <path d="M-38.54 40.9s3.72.1 6.11-1.4c.85-.54 1.52.65.5 1.08-2.21.95-6.61.33-6.61.33z" style="color:#000;display:inline;overflow:visible;visibility:visible;opacity:.427778;fill:url(#v);fill-opacity:1;fill-rule:nonzero;stroke:none;stroke-width:1;stroke-linecap:round;stroke-linejoin:miter;stroke-miterlimit:4;stroke-dasharray:none;stroke-dashoffset:0;stroke-opacity:1;marker:none;marker-start:none;marker-mid:none;marker-end:none" transform="rotate(-106.41 122.22 24.45) scale(1.9264)"/>
  <path d="M23 31.74a8.2 8.2 0 0 0 3.41-.48c.1-.55.54-1.62 2.05-1.69l-.53-.93S25.96 30 23.86 30.4z" style="color:#000;display:inline;overflow:visible;visibility:visible;fill:url(#w);fill-opacity:1;fill-rule:evenodd;stroke:none;stroke-width:1;stroke-linecap:butt;stroke-linejoin:miter;stroke-miterlimit:10;stroke-dasharray:none;stroke-dashoffset:0;stroke-opacity:1;marker:none;marker-start:none;marker-mid:none;marker-end:none" transform="translate(16.17 7.87) scale(4.7398)"/>
              
            </g>
            <!-- Icon: inkscape -->
            <g transform="translate(600, 300)">
              <rect width="256" height="256" fill="#242938" rx="60"/>
  <path fill="#000" d="M107.7 26.6 26.2 110c-27.5 34 18.7 30 38.6 39.9 7 7.2-27.3 12.6-20.2 19.9 7.1 7.3 43 14 50.1 21.3 7.2 7.2-14.5 15-7.4 22.2 7.1 7.3 23.6.4 26.6 17.2 2.2 12 29.7 5.1 43-4.7 7.2-7.3-13.5-6.6-6.4-13.9 17.7-18 34.1-6.5 40.2-24.7 3-8.9-26-13.8-19-21 20.5-12 91.2-19.7 57.7-53.3L145 26.6a27 27 0 0 0-37.3 0zm93.5 160.6c0 4.2 30.4 6.9 30.4-1-4.3-12.5-26.8-11.6-30.4 1zM64 209.2c7.2 6.3 18.3-1.5 21.7-10.2-7-9.3-33.2.3-21.7 10.2zm133.4-13.5c-9.3 8.4 1 16.8 10.2 11.5 2-2.1 0-9.4-10.2-11.5z"/>
  <path fill="#fff" d="M88.2 154.4c2.1 1.3 35 8 43.1 9.4 2.8.5.8 3.4-3 5.4-8.7 2.3-50.7-14.8-40.1-14.8zM140 32.5l32.3 32.7c3 3.1 3 9.2 1.3 10.9l-16-12.8-3.2 19-13.3-7.1-21.4 13.5-7.1-28.5-11.5 20H83.5c-7.1 0-8-9.2-1.5-15.7 11.4-12.3 24.4-24.8 31.5-32a19 19 0 0 1 26.6 0z"/>
              
            </g>
            <!-- Icon: unity -->
            <g transform="translate(0, 600)">
              <rect width="256" height="256" fill="#242938" rx="60"/><path fill="#CCC" d="M216.042 167.814V74.7425L135.38 28.2068V63.9876L167.025 82.1882C168.266 82.8086 168.266 84.6701 167.025 85.2905L129.382 107.007C128.348 107.628 126.901 107.628 125.866 107.007L88.2243 85.0837C86.9834 84.4632 86.9834 82.6018 88.2243 81.9813L119.869 63.7807V28L39.2068 74.5356V167.814V167.4V167.814L70.2305 150.027V113.419C70.2305 112.178 71.6783 111.144 72.9193 111.971L110.561 133.688C111.596 134.308 112.423 135.549 112.423 136.79V180.223C112.423 181.464 110.975 182.498 109.734 181.671L78.0899 163.47L47.0661 181.257L127.728 227.793L208.39 181.257L177.366 163.47L145.722 181.671C144.688 182.291 143.033 181.464 143.033 180.223V136.79C143.033 135.549 143.653 134.308 144.894 133.688L182.537 111.971C183.571 111.35 185.225 112.178 185.225 113.419V150.027L216.042 167.814Z"/><path fill="#A6A6A6" d="M127.521 228L208.183 181.464L177.159 163.677L145.515 181.878C144.481 182.499 142.826 181.671 142.826 180.43V136.997C142.826 135.756 143.447 134.515 144.688 133.895L182.33 112.178C183.364 111.558 185.019 112.385 185.019 113.626V150.234L216.042 168.021V74.7427L127.521 125.828V228Z"/><path fill="#fff" d="M135.174 28V63.7807L166.818 81.9813C168.059 82.6018 168.059 84.4632 166.818 85.0837L129.176 106.8C128.142 107.421 126.694 107.421 125.66 106.8L88.2243 85.0837C86.9834 84.4632 86.9834 82.6018 88.2243 81.9813L119.869 63.7807V28L39.2068 74.5356L127.728 125.621L216.249 74.5356L135.174 28Z"/><path fill="#CCC" d="M109.32 181.671L77.6763 163.471L46.6525 181.258L127.314 227.793V125.622L39 74.7427V168.021V167.607V168.021L70.0237 150.234V113.626C70.0237 112.385 71.4715 111.351 72.7125 112.178L110.355 133.895C111.389 134.515 112.216 135.756 112.216 136.997V180.43C112.009 181.464 110.561 182.292 109.32 181.671Z"/>
              
            </g>
            <!-- Icon: godot -->
            <g transform="translate(300, 600)">
              <rect width="256" height="256" fill="#242938" rx="60"/><path fill="#fff" d="M222.017 163.681C222.017 163.681 221.705 161.792 221.522 161.809L186.772 165.116C184.007 165.379 181.86 167.554 181.666 170.286L180.711 183.781L153.827 185.673L151.998 173.442C151.591 170.722 149.182 168.672 146.394 168.672H109.718C106.931 168.672 104.522 170.722 104.115 173.442L102.285 185.673L75.4013 183.781L74.4466 170.286C74.2526 167.553 72.1051 165.378 69.3401 165.115L34.573 161.809C34.3934 161.792 34.2618 163.683 34.0822 163.683L34.0352 171.099L63.4796 175.782L64.4439 189.397C64.6389 192.153 66.8939 194.382 69.6906 194.58L106.716 197.185C106.856 197.194 106.994 197.2 107.133 197.2C109.915 197.2 112.32 195.148 112.727 192.428L114.608 179.844H141.505L143.386 192.428C143.793 195.147 146.2 197.199 148.987 197.199C149.123 197.199 149.259 197.194 149.393 197.185L186.423 194.58C189.218 194.382 191.474 192.153 191.669 189.397L192.633 175.782L222.065 171.078L222.017 163.681Z"/><path fill="#478CBF" d="M34.0818 107.758V152.763V158.479V163.681C34.1856 163.682 34.2893 163.686 34.3921 163.695L69.1553 167.001C70.9763 167.174 72.4034 168.619 72.5302 170.419L73.602 185.553L103.926 187.687L106.015 173.719C106.286 171.908 107.861 170.566 109.719 170.566H146.395C148.251 170.566 149.827 171.908 150.097 173.719L152.186 187.687L182.511 185.553L183.582 170.419C183.71 168.619 185.136 167.175 186.957 167.001L221.707 163.695C221.81 163.686 221.913 163.682 222.016 163.681V159.219L222.031 159.214V107.758H222.159C226.765 101.961 231.026 95.8527 235.113 89.3361C229.685 80.2242 223.035 72.0812 215.927 64.5368C209.335 67.8094 202.932 71.5167 196.884 75.4617C193.858 72.4951 190.449 70.0684 187.101 67.5318C183.812 64.9261 180.105 63.0157 176.589 60.7898C177.635 53.1014 178.153 45.5325 178.361 37.6329C169.289 33.13 159.615 30.1445 149.829 28C145.922 34.476 142.35 41.4889 139.238 48.3447C135.548 47.7366 131.841 47.5112 128.129 47.4676V47.4619C128.103 47.4619 128.079 47.4676 128.057 47.4676C128.034 47.4676 128.01 47.4619 127.987 47.4619V47.4676C124.268 47.5112 120.564 47.7366 116.873 48.3447C113.763 41.4889 110.192 34.476 106.279 28C96.4984 30.1445 86.8232 33.13 77.752 37.6329C77.9595 45.5325 78.4771 53.1014 79.5269 60.7898C76.0041 63.0157 72.3016 64.9261 69.0113 67.5318C65.668 70.0684 62.2538 72.4951 59.2265 75.4617C53.1788 71.5167 46.7776 67.8094 40.1834 64.5368C33.0753 72.0812 26.4292 80.2242 21 89.3361C25.0847 95.8527 29.3489 101.961 33.9531 107.758H34.0818Z"/><path fill="#478CBF" d="M190.83 174.05L189.753 189.265C189.624 191.099 188.144 192.558 186.285 192.69L149.256 195.296C149.166 195.302 149.076 195.305 148.986 195.305C147.146 195.305 145.559 193.973 145.287 192.151L143.163 177.949H112.95L110.826 192.151C110.541 194.062 108.808 195.437 106.857 195.296L69.8278 192.69C67.9684 192.558 66.4894 191.099 66.3597 189.265L65.2831 174.05L34.0244 171.078C34.0388 174.391 34.0821 178.021 34.0821 178.744C34.0821 211.302 75.961 226.952 127.993 227.132H128.056H128.12C180.152 226.952 222.016 211.302 222.016 178.744C222.016 178.008 222.062 174.393 222.077 171.078L190.83 174.05Z"/><path fill="#fff" d="M99.7266 130.459C99.7266 141.874 90.3481 151.122 78.777 151.122C67.2117 151.122 57.8303 141.874 57.8303 130.459C57.8303 119.051 67.2117 109.808 78.777 109.808C90.3481 109.808 99.7266 119.051 99.7266 130.459Z"/><path fill="#414042" d="M94.6858 131.684C94.6858 139.256 88.4632 145.393 80.7799 145.393C73.1004 145.393 66.874 139.256 66.874 131.684C66.874 124.112 73.1004 117.97 80.7799 117.97C88.4632 117.97 94.6858 124.112 94.6858 131.684Z"/><path fill="#fff" d="M128.055 153.001C124.33 153.001 121.312 150.294 121.312 146.957V127.937C121.312 124.603 124.33 121.893 128.055 121.893C131.779 121.893 134.804 124.603 134.804 127.937V146.957C134.804 150.294 131.779 153.001 128.055 153.001Z"/><path fill="#fff" d="M156.386 130.459C156.386 141.874 165.765 151.122 177.338 151.122C188.902 151.122 198.283 141.874 198.283 130.459C198.283 119.051 188.902 109.808 177.338 109.808C165.765 109.808 156.386 119.051 156.386 130.459Z"/><path fill="#414042" d="M161.428 131.684C161.428 139.256 167.649 145.393 175.327 145.393C183.012 145.393 189.233 139.256 189.233 131.684C189.233 124.112 183.012 117.97 175.327 117.97C167.649 117.97 161.428 124.112 161.428 131.684Z"/>
              
            </g></svg>