<svg xmlns="http://www.w3.org/2000/svg" fill="none" viewBox="0 0 64 64">
  <defs>
    <linearGradient id="mint__a" x1="14" y1="15" x2="50" y2="58" gradientUnits="userSpaceOnUse">
      <stop stop-color="#92D656"/>
      <stop offset="1" stop-color="#73AB43"/>
    </linearGradient>
  </defs>
  <path fill="url(#mint__a)" d="M14.5 15.75v22.5c0.03 5.52 4.48 9.97 10 10h15c5.52-0.03 9.97-4.48 10-10v-12.5a7.5 7.5 0 0 0-7.5-7.5c-1.85 0-3.62.7-5 1.98-1.38-1.25-3.15-1.95-5-1.98-4.12.03-7.47 3.38-7.5 7.5v12.5h5v-12.5c0-1.38 1.12-2.5 2.5-2.5s2.5 1.12 2.5 2.5v12.5h5v-12.5c0-1.38 1.12-2.5 2.5-2.5s2.5 1.12 2.5 2.5v12.5c0.03 2.75-2.2 4.97-4.92 5a.25.25 0 0 1-.08 0h-15c-2.75.03-4.97-2.2-5-4.92a.25.25 0 0 1 0-.08V15.75h-5z"/>
</svg>
